<svg width="192" height="35" viewBox="0 0 192 35" fill="none" xmlns="http://www.w3.org/2000/svg">
<g clip-path="url(#clip0_10662_100518)">
<path d="M26.055 26.0438C26.4252 22.3063 25.6689 19.8898 24.6975 17.6579C22.9858 14.1009 20.8163 12.267 24.7294 7.93457C19.025 12.1275 19.5584 12.3326 21.0432 14.5235C22.54 16.4764 25.3584 20.8621 26.055 26.0438Z" fill="white"/>
<path d="M3.06564 13.5796C3.63489 13.1858 4.20015 12.9601 4.49871 12.956C4.81717 13.1078 5.09184 13.4566 5.4103 13.6371C5.50186 13.6945 5.58546 13.7479 5.69692 13.7479C6.01538 13.6371 6.70405 13.034 7.15388 12.6524C7.26932 12.5499 7.26932 12.5335 7.12601 12.5129C6.68415 12.4637 5.68896 12.4842 4.91271 12.5129C4.86494 12.4678 4.84902 12.4063 4.90077 12.3447C7.19766 10.4083 10.8082 11.6514 14.6895 10.7693C15.1393 11.1098 13.4833 12.3324 11.7158 13.5263C12.711 13.2514 13.7818 12.8289 14.8805 12.2955C16.1663 11.598 17.7347 10.5478 19.4027 9.3867C23.2919 6.53123 26.0068 3.73731 28.228 2.53112C29.9437 1.80494 31.1937 1.87469 32.368 2.78959C34.7764 4.67682 34.1235 10.1785 33.8847 12.7058C33.4189 17.9449 32.0217 24.3656 29.5576 29.3463C28.3076 32.1074 25.1668 33.1905 22.8421 33.2356C25.0991 30.1873 25.3738 26.9134 24.2433 24.0087C22.8022 19.865 18.3995 16.4761 13.0255 15.6146C9.94837 15.1058 6.85532 14.991 4.43104 15.0484C4.08869 15.0894 3.44779 15.1141 3.3841 15.7007C3.02583 15.2166 2.83077 14.7735 2.74718 14.4412C2.66756 14.1048 2.78698 13.8094 3.05767 13.5879M3.68265 5.46043C3.95733 3.89731 4.53056 3.12601 5.30282 2.68292C7.40864 1.67366 8.5551 2.51881 10.2589 3.75782C12.8384 5.57531 16.0986 8.34872 16.9028 9.42773C8.29635 10.5067 6.28209 8.96823 3.70256 11.7416C3.43187 8.83284 3.44779 6.83894 3.68265 5.45633M18.3597 33.5392C16.636 33.6992 15.0716 33.6541 13.742 33.4489C12.0263 33.3095 10.5654 32.374 9.35922 30.9832C8.48743 29.7606 7.73507 28.3083 7.09815 26.7821C5.5138 22.4907 4.51065 18.5111 4.22802 16.5418C4.1285 16.5418 5.90392 16.3366 7.85847 16.4802C10.6052 16.5418 14.4227 16.7305 12.9379 19.7993C17.0938 17.4444 20.4735 20.6527 21.612 22.0804C22.0141 22.4291 23.1287 24.5543 23.2879 26.9175C23.2481 30.2119 22.0857 33.0141 18.3637 33.5392M4.33152 34.2449C9.01289 35.5372 23.5228 34.8562 30.5886 34.4664C32.2406 34.29 34.3703 34.29 35.68 32.3658C36.1617 31.7668 36.4005 31.0817 36.7389 29.3381C37.0971 25.7441 37.2842 21.8507 37.2126 17.3828C37.1011 13.1284 37.0016 8.21744 36.3727 4.73016C35.7198 1.47673 33.6777 0.606958 30.1348 0.360797C20.6088 -0.176655 16.015 -0.0494714 7.51613 0.31977C2.21375 0.754655 0.573681 2.02649 0.25522 8.53334C-0.170721 15.3807 -0.0672211 22.3799 0.593585 28.8375C0.927969 33.2069 2.86262 33.9331 4.33152 34.2449Z" fill="white"/>
<path d="M18.8526 21.2068C17.3876 19.8939 15.2301 19.2088 13.8089 20.2591C13.0446 21.0304 12.9491 21.7442 13.3193 22.9956C13.4347 23.3689 13.5382 23.7792 13.5462 24.1771C13.586 25.2849 12.6784 25.9577 12.1211 27.7178C12.6227 27.1475 13.9443 26.7906 14.5454 27.9516C14.7922 27.9147 15.1942 27.9967 15.2221 28.5834C15.5764 27.3977 14.0876 27.8408 14.7842 26.5034C13.9522 27.1639 13.9045 26.3475 13.0844 26.6921C13.0247 26.4623 13.2476 26.0069 13.4865 25.7033C14.9435 23.5987 16.6472 25.1126 17.5588 23.4263C15.2261 25.0674 12.8018 21.9699 13.9921 20.8417C14.8121 20.0129 16.4084 20.5052 17.2603 21.0017C17.73 21.2068 18.9919 22.253 19.6288 23.812C19.9353 24.6284 20.2578 27.4716 18.9242 28.805C18.1957 29.4655 17.722 29.6706 16.7428 29.3958C14.0438 28.6039 14.2826 30.963 12.3122 29.5352C12.1609 30.085 12.5749 30.6553 13.2516 30.9014C14.0438 31.0491 14.6091 30.5691 14.9594 30.4871C15.3375 30.3189 15.4848 30.5609 15.0111 30.885C14.836 31.0286 14.7763 31.205 15.1226 31.205C15.2102 31.2666 15.5127 31.2297 15.8312 31.1845C16.1655 31.1148 16.4999 31.0573 16.683 31.0738C16.906 31.0902 17.0334 31.2461 16.6074 31.5168C16.4283 31.6358 15.8829 31.8861 15.3535 31.9148C15.7277 32.0871 16.6074 32.2102 17.527 32.1322C20.1264 31.8204 21.1455 28.8788 21.2052 26.5321C21.2012 24.4397 20.4011 22.6263 18.8605 21.215" fill="white"/>
<path d="M46.6305 26.6513L45.4601 27.197C45.3088 26.8564 45.0501 26.4134 44.441 26.4134C43.9594 26.4134 43.6807 26.7128 43.6807 27.1026C43.6807 28.2965 46.722 28.1242 46.722 30.3601C46.722 31.6279 45.8423 32.5551 44.3813 32.5551C42.9204 32.5551 42.2596 31.472 42.0605 30.8853L43.2508 30.2863C43.4419 30.7622 43.832 31.2053 44.4609 31.2053C44.9824 31.2053 45.2929 30.9263 45.2929 30.4627C45.2929 29.2278 42.2715 29.4329 42.2715 27.1231C42.2715 25.9087 43.1314 25.0718 44.4729 25.0718C45.8821 25.0718 46.4633 26.1221 46.6344 26.6472L46.6305 26.6513Z" fill="white"/>
<path d="M48.0684 25.207H51.667V26.5158H49.4775V28.124H51.3565V29.4123H49.4775V31.1231H51.7585V32.4237H48.0684V25.207Z" fill="white"/>
<path d="M53.2305 25.207H55.3403C56.8689 25.207 57.7088 26.1671 57.7088 27.3527C57.7088 28.2307 57.2869 28.8994 56.6499 29.2605L58.3099 32.4237H56.7495L55.388 29.601H54.6397V32.4237H53.2305V25.207ZM55.3005 28.3702C55.81 28.3702 56.2598 28.042 56.2598 27.402C56.2598 26.8235 55.8697 26.4625 55.2288 26.4625H54.6397V28.3702H55.3005Z" fill="white"/>
<path d="M61.3998 32.4237L58.8203 25.207H60.3688L62.1602 30.7128L63.9515 25.207H65.5L62.9285 32.4237H61.3998Z" fill="white"/>
<path d="M66.582 25.207H67.9912V32.4237H66.582V25.207Z" fill="white"/>
<path d="M69.3125 28.8134C69.3125 26.6882 70.8531 25.0718 72.9629 25.0718C73.8944 25.0718 74.595 25.3918 75.0448 25.7323L74.6467 27.0123C74.3084 26.7662 73.6754 26.4339 72.9668 26.4339C71.697 26.4339 70.7854 27.4554 70.7854 28.8134C70.7854 30.1714 71.697 31.193 72.9668 31.193C73.7272 31.193 74.376 30.8443 74.7064 30.6063L75.1045 31.874C74.6825 32.194 73.9859 32.5551 72.9629 32.5551C70.7734 32.5551 69.3125 30.9386 69.3125 28.8134Z" fill="white"/>
<path d="M76.4102 25.207H77.8193V32.4237H76.4102V25.207Z" fill="white"/>
<path d="M79.1406 28.8134C79.1406 26.7087 80.6294 25.0718 82.779 25.0718C84.9286 25.0718 86.4214 26.7087 86.4214 28.8134C86.4214 30.9181 84.9326 32.5551 82.779 32.5551C80.6254 32.5551 79.1406 30.9386 79.1406 28.8134ZM80.6095 28.8134C80.6095 30.196 81.5211 31.193 82.779 31.193C84.037 31.193 84.9486 30.1919 84.9486 28.8134C84.9486 27.4349 84.037 26.4339 82.779 26.4339C81.5211 26.4339 80.6095 27.4554 80.6095 28.8134Z" fill="white"/>
<path d="M91.8629 26.6513L90.6925 27.197C90.5413 26.8564 90.2825 26.4134 89.6735 26.4134C89.1918 26.4134 88.9131 26.7128 88.9131 27.1026C88.9131 28.2965 91.9544 28.1242 91.9544 30.3601C91.9544 31.6279 91.0747 32.5551 89.6138 32.5551C88.1528 32.5551 87.492 31.472 87.293 30.8853L88.4832 30.2863C88.6743 30.7622 89.0644 31.2053 89.6934 31.2053C90.2149 31.2053 90.5253 30.9263 90.5253 30.4627C90.5253 29.2278 87.504 29.4329 87.504 27.1231C87.504 25.9087 88.3638 25.0718 89.7053 25.0718C91.1145 25.0718 91.6957 26.1221 91.8669 26.6472L91.8629 26.6513Z" fill="white"/>
<path d="M96.1348 25.207H98.364C99.7334 25.207 100.665 26.0932 100.665 27.4553C100.665 28.8174 99.6936 29.7323 98.3759 29.7323H97.544V32.4237H96.1348V25.207ZM98.1729 28.4769C98.7939 28.4769 99.2119 28.0666 99.2119 27.4553C99.2119 26.844 98.782 26.4666 98.1928 26.4666H97.544V28.4769H98.1729Z" fill="white"/>
<path d="M104.693 32.5549C102.882 32.5549 101.875 31.4102 101.875 29.7117V25.207H103.284V29.7117C103.284 30.6307 103.794 31.2051 104.693 31.2051C105.593 31.2051 106.103 30.6266 106.103 29.7117V25.207H107.512V29.7117C107.512 31.4143 106.501 32.5549 104.689 32.5549H104.693ZM104.033 24.8172H105.183L106.154 23.332H104.705L104.037 24.8172H104.033Z" fill="white"/>
<path d="M109.176 25.2067H111.397C112.786 25.2067 113.698 25.9493 113.698 27.1145C113.698 27.775 113.368 28.3822 112.858 28.6694C113.519 28.9566 113.929 29.5679 113.929 30.3064C113.929 31.7095 112.818 32.4193 111.528 32.4193H109.18V25.2026L109.176 25.2067ZM111.385 28.1237C111.875 28.1237 112.257 27.7832 112.257 27.2786C112.257 26.774 111.899 26.4663 111.365 26.4663H110.585V28.1237H111.385ZM111.445 31.1761C112.014 31.1761 112.464 30.8151 112.464 30.2284C112.464 29.6417 112.014 29.3012 111.445 29.3012H110.585V31.1761H111.445Z" fill="white"/>
<path d="M115.246 25.207H116.655V31.1149H118.936V32.4237H115.246V25.207Z" fill="white"/>
<path d="M120.146 25.207H121.556V32.4237H120.146V25.207Z" fill="white"/>
<path d="M122.877 28.8134C122.877 26.6882 124.418 25.0718 126.527 25.0718C127.459 25.0718 128.155 25.3918 128.609 25.7323L128.207 27.0123C127.869 26.7662 127.236 26.4339 126.527 26.4339C125.257 26.4339 124.346 27.4554 124.346 28.8134C124.346 30.1714 125.257 31.193 126.527 31.193C127.288 31.193 127.937 30.8443 128.267 30.6063L128.669 31.874C128.247 32.194 127.55 32.5551 126.527 32.5551C124.338 32.5551 122.877 30.9386 122.877 28.8134Z" fill="white"/>
<path d="M129.605 28.8134C129.605 26.7087 131.094 25.0718 133.244 25.0718C135.393 25.0718 136.882 26.7087 136.882 28.8134C136.882 30.9181 135.393 32.5551 133.244 32.5551C131.094 32.5551 129.605 30.9386 129.605 28.8134ZM131.078 28.8134C131.078 30.196 131.99 31.193 133.248 31.193C134.506 31.193 135.417 30.1919 135.417 28.8134C135.417 27.4349 134.506 26.4339 133.248 26.4339C131.99 26.4339 131.078 27.4554 131.078 28.8134Z" fill="white"/>
<path d="M142.328 26.6513L141.157 27.197C141.006 26.8564 140.747 26.4134 140.138 26.4134C139.657 26.4134 139.378 26.7128 139.378 27.1026C139.378 28.2965 142.419 28.1242 142.419 30.3601C142.419 31.6279 141.54 32.5551 140.079 32.5551C138.618 32.5551 137.957 31.472 137.758 30.8853L138.948 30.2863C139.139 30.7622 139.529 31.2053 140.158 31.2053C140.68 31.2053 140.99 30.9263 140.99 30.4627C140.99 29.2278 137.969 29.4329 137.969 27.1231C137.969 25.9087 138.829 25.0718 140.17 25.0718C141.579 25.0718 142.161 26.1221 142.332 26.6472L142.328 26.6513Z" fill="white"/>
<path d="M146.6 25.2067H148.459C150.748 25.2067 152.169 26.5565 152.169 28.813C152.169 31.0695 150.74 32.4193 148.459 32.4193H146.6V25.2026V25.2067ZM148.51 31.1638C149.84 31.1638 150.7 30.372 150.7 28.813C150.7 27.254 149.84 26.4745 148.51 26.4745H148.009V31.1638H148.51Z" fill="white"/>
<path d="M153.498 25.207H157.097V26.5158H154.907V28.124H156.786V29.4123H154.907V31.1231H157.188V32.4237H153.498V25.207Z" fill="white"/>
<path d="M165.611 26.6513L164.441 27.197C164.289 26.8564 164.031 26.4134 163.422 26.4134C162.94 26.4134 162.661 26.7128 162.661 27.1026C162.661 28.2965 165.702 28.1242 165.702 30.3601C165.702 31.6279 164.823 32.5551 163.362 32.5551C161.901 32.5551 161.24 31.472 161.041 30.8853L162.231 30.2863C162.422 30.7622 162.812 31.2053 163.441 31.2053C163.963 31.2053 164.273 30.9263 164.273 30.4627C164.273 29.2278 161.252 29.4329 161.252 27.1231C161.252 25.9087 162.112 25.0718 163.453 25.0718C164.863 25.0718 165.444 26.1221 165.615 26.6472L165.611 26.6513Z" fill="white"/>
<path d="M168.489 30.5692L167.88 32.4237H166.459L168.939 25.207H170.42L172.9 32.4237H171.479L170.87 30.5692H168.489ZM169.679 26.7661L168.871 29.3631H170.503L169.683 26.7661H169.679Z" fill="white"/>
<path d="M174.002 25.207H175.411V31.1149H177.692V32.4237H174.002V25.207Z" fill="white"/>
<path d="M178.672 29.7118V25.207H180.081V29.7118C180.081 30.6308 180.591 31.2052 181.49 31.2052C182.39 31.2052 182.9 30.6267 182.9 29.7118V25.207H184.309V29.7118C184.309 31.4144 183.298 32.5549 181.486 32.5549C179.675 32.5549 178.668 31.4103 178.668 29.7118H178.672Z" fill="white"/>
<path d="M185.973 25.2067H187.832C190.121 25.2067 191.542 26.5565 191.542 28.813C191.542 31.0695 190.113 32.4193 187.832 32.4193H185.973V25.2026V25.2067ZM187.883 31.1638C189.213 31.1638 190.073 30.372 190.073 28.813C190.073 27.254 189.213 26.4745 187.883 26.4745H187.382V31.1638H187.883Z" fill="white"/>
<path d="M42.137 5.02954C42.1091 4.13516 42.0693 3.24077 42.0176 2.34229C42.2445 2.371 42.4953 2.39562 42.762 2.41613C43.0287 2.43665 43.3312 2.44895 43.6696 2.44895C44.008 2.44895 44.3065 2.43665 44.5772 2.41613C44.8439 2.39562 45.0947 2.371 45.3216 2.34229C45.2659 3.24077 45.2261 4.13926 45.2022 5.02954C45.1743 5.92393 45.1624 6.94139 45.1624 8.09015V10.9128C45.1624 12.0615 45.1743 13.0831 45.2022 13.9734C45.2301 14.8678 45.2699 15.7417 45.3216 16.5991C45.0947 16.5704 44.8439 16.5581 44.5772 16.5581H42.766C42.4992 16.5581 42.2485 16.5704 42.0216 16.5991C42.0733 15.7417 42.1171 14.8678 42.141 13.9734C42.1688 13.079 42.1808 12.0615 42.1808 10.9128V8.09015C42.1808 6.94139 42.1688 5.91983 42.141 5.02954H42.137Z" fill="white"/>
<path d="M49.9321 11.9508C49.8246 13.5016 49.7171 15.0524 49.6096 16.5991C49.4504 16.5704 49.2872 16.5581 49.1279 16.5581H48.1925C48.0372 16.5581 47.882 16.5704 47.7188 16.5991C48.1487 14.2196 48.5308 11.8523 48.8652 9.50147C49.1996 7.15063 49.5101 4.76287 49.7927 2.34229C49.94 2.371 50.0793 2.39562 50.2067 2.41613C50.3341 2.43665 50.4734 2.44895 50.6207 2.44895C50.7401 2.44895 50.8675 2.43665 51.0029 2.41613C51.1382 2.39562 51.2775 2.371 51.4248 2.34229C51.7871 3.17103 52.1653 4.01618 52.5633 4.87364C52.9574 5.7311 53.3555 6.58446 53.7536 7.43782C54.1477 8.28707 54.5458 9.12402 54.9438 9.94046C55.3379 10.7569 55.7201 11.5323 56.0823 12.2667C56.8864 10.7159 57.6905 9.0953 58.4907 7.4009C59.2908 5.70649 60.0511 4.02028 60.7756 2.34639C61.11 2.41613 61.4006 2.44895 61.6434 2.44895C61.8704 2.44895 62.153 2.41613 62.4913 2.34639C62.6267 3.53617 62.77 4.8162 62.9253 6.1865C63.0805 7.5568 63.2318 8.89427 63.3791 10.203C63.5263 11.5118 63.6736 12.7303 63.8209 13.8667C63.9682 15.0032 64.1036 15.914 64.223 16.6073C63.9523 16.5786 63.6816 16.5663 63.4069 16.5663H61.7669C61.4842 16.5663 61.2016 16.5786 60.9189 16.6073C60.8513 15.1837 60.7398 13.6411 60.5885 11.9795C60.4333 10.3179 60.278 8.67273 60.1148 7.03986H60.075C59.3107 8.67273 58.5584 10.2769 57.8179 11.8564C57.0775 13.4318 56.349 15.0196 55.6245 16.6114C55.5569 16.5991 55.4932 16.5868 55.4335 16.5786C55.3737 16.5704 55.3101 16.5663 55.2424 16.5663C55.1747 16.5663 55.111 16.5663 55.0513 16.5786C54.9916 16.5868 54.9279 16.595 54.8602 16.6114C54.1357 15.0606 53.4152 13.5098 52.6947 11.9631C51.9782 10.4123 51.2338 8.84094 50.4695 7.2532H50.4296C50.2147 8.84504 50.0555 10.4164 49.948 11.9631L49.9321 11.9508Z" fill="white"/>
<path d="M70.214 3.35992C69.597 3.35992 69.0914 3.54864 68.7053 3.92199C68.3152 4.29533 68.1201 4.73022 68.1201 5.23074C68.1201 5.73127 68.2714 6.16205 68.5739 6.48617C68.8765 6.81028 69.2546 7.10567 69.7124 7.36824C70.1702 7.63081 70.6598 7.88518 71.1813 8.12724C71.7068 8.3693 72.1964 8.66879 72.6502 9.02162C73.108 9.37445 73.4862 9.80524 73.7887 10.3099C74.0913 10.8145 74.2425 11.4627 74.2425 12.2504C74.2425 12.9438 74.1151 13.5756 73.8604 14.15C73.6056 14.7244 73.2434 15.2167 72.7736 15.6228C72.3039 16.0331 71.7426 16.3408 71.0937 16.5583C70.4409 16.7716 69.7124 16.8783 68.9083 16.8783C68.1838 16.8783 67.5349 16.8003 66.9657 16.6403C66.3964 16.4803 65.9625 16.2834 65.668 16.0495C65.8033 15.5654 65.9148 15.1223 66.0103 14.7203C66.1059 14.3182 66.1855 13.8833 66.2531 13.4115H66.6353C66.687 13.7151 66.7905 14.0023 66.9378 14.2731C67.0851 14.5438 67.2722 14.7818 67.5031 14.991C67.73 15.2003 68.0047 15.3603 68.3271 15.4792C68.6496 15.5982 69.0118 15.6557 69.4139 15.6557C70.218 15.6557 70.8151 15.4464 71.1972 15.0321C71.5794 14.6177 71.7705 14.1172 71.7705 13.5387C71.7705 13.0135 71.6232 12.5828 71.3286 12.2504C71.034 11.9181 70.6638 11.6227 70.222 11.3684C69.7801 11.114 69.2944 10.8637 68.773 10.6217C68.2475 10.3796 67.7658 10.0842 67.324 9.73959C66.8821 9.39497 66.5119 8.96829 66.2173 8.46366C65.9227 7.95903 65.7754 7.3108 65.7754 6.52309C65.7754 5.80512 65.8988 5.1651 66.1496 4.61534C66.3964 4.06148 66.7308 3.59788 67.1448 3.22453C67.5628 2.85119 68.0405 2.5681 68.5859 2.37527C69.1312 2.18245 69.7045 2.08398 70.3095 2.08398C71.034 2.08398 71.6709 2.17424 72.2123 2.35476C72.7577 2.53528 73.2234 2.78554 73.6136 3.10145C73.4941 3.42146 73.3867 3.72916 73.3031 4.02455C73.2155 4.32405 73.104 4.69739 72.9727 5.15689H72.6701C72.2402 3.96712 71.4281 3.37223 70.2339 3.37223L70.214 3.35992Z" fill="white"/>
<path d="M80.2804 3.35992C79.6634 3.35992 79.1578 3.54864 78.7717 3.92199C78.3816 4.29533 78.1865 4.73022 78.1865 5.23074C78.1865 5.73127 78.3378 6.16205 78.6403 6.48617C78.9429 6.81028 79.321 7.10567 79.7788 7.36824C80.2366 7.63081 80.7263 7.88518 81.2477 8.12724C81.7732 8.3693 82.2628 8.66879 82.7166 9.02162C83.1744 9.37445 83.5526 9.80524 83.8551 10.3099C84.1577 10.8145 84.3089 11.4627 84.3089 12.2504C84.3089 12.9438 84.1815 13.5756 83.9268 14.15C83.672 14.7244 83.3098 15.2167 82.84 15.6228C82.3703 16.0331 81.809 16.3408 81.1602 16.5583C80.5073 16.7716 79.7788 16.8783 78.9747 16.8783C78.2502 16.8783 77.6013 16.8003 77.0321 16.6403C76.4629 16.4803 76.029 16.2834 75.7344 16.0495C75.8697 15.5654 75.9812 15.1223 76.0767 14.7203C76.1723 14.3182 76.2519 13.8833 76.3195 13.4115H76.7017C76.7534 13.7151 76.857 14.0023 77.0042 14.2731C77.1515 14.5438 77.3386 14.7818 77.5695 14.991C77.7964 15.2003 78.0711 15.3603 78.3935 15.4792C78.716 15.5982 79.0782 15.6557 79.4803 15.6557C80.2844 15.6557 80.8815 15.4464 81.2636 15.0321C81.6458 14.6177 81.8369 14.1172 81.8369 13.5387C81.8369 13.0135 81.6896 12.5828 81.395 12.2504C81.1004 11.9181 80.7302 11.6227 80.2884 11.3684C79.8465 11.114 79.3608 10.8637 78.8394 10.6217C78.3139 10.3796 77.8322 10.0842 77.3904 9.73959C76.9485 9.39497 76.5783 8.96829 76.2837 8.46366C75.9891 7.95903 75.8419 7.3108 75.8419 6.52309C75.8419 5.80512 75.9653 5.1651 76.216 4.61534C76.4629 4.06148 76.7972 3.59788 77.2112 3.22453C77.6292 2.85119 78.1069 2.5681 78.6523 2.37527C79.1976 2.18245 79.7709 2.08398 80.3759 2.08398C81.1004 2.08398 81.7374 2.17424 82.2787 2.35476C82.8241 2.53528 83.2899 2.78554 83.68 3.10145C83.5606 3.42146 83.4531 3.72916 83.3695 4.02455C83.2819 4.32405 83.1704 4.69739 83.0391 5.15689H82.7365C82.3066 3.96712 81.4945 3.37223 80.3003 3.37223L80.2804 3.35992Z" fill="white"/>
<path d="M90.9181 10.8721V13.1573H85.9023V10.8721H90.9181Z" fill="white"/>
<path d="M93.5558 8.09015C93.5558 6.94139 93.5438 5.91983 93.516 5.02954C93.4881 4.13516 93.4483 3.24077 93.3966 2.34229C93.6235 2.371 93.8743 2.39562 94.141 2.41613C94.4077 2.43665 94.7102 2.44895 95.0486 2.44895C95.6258 2.44895 96.2309 2.43254 96.8598 2.39562C97.4888 2.3628 98.0939 2.34229 98.6711 2.34229C99.2483 2.34229 99.8255 2.40383 100.323 2.53101C100.821 2.65409 101.251 2.84692 101.613 3.10128C101.975 3.35565 102.254 3.68797 102.449 4.09823C102.644 4.5085 102.739 4.99262 102.739 5.56289C102.739 6.13317 102.624 6.61728 102.397 7.02755C102.17 7.43782 101.892 7.77424 101.561 8.04502C101.231 8.31579 100.876 8.52503 100.494 8.67683C100.112 8.82863 99.7658 8.9312 99.4553 8.98863V9.02966C99.7658 9.04197 100.128 9.11582 100.542 9.2471C100.96 9.37839 101.354 9.58352 101.732 9.8584C102.106 10.1374 102.429 10.4902 102.688 10.9292C102.95 11.3641 103.082 11.8933 103.082 12.5169C103.082 13.2636 102.95 13.8995 102.688 14.4247C102.425 14.9498 102.075 15.3806 101.641 15.7129C101.203 16.0453 100.705 16.275 100.14 16.4063C99.5747 16.5376 98.9935 16.6032 98.3884 16.6032C97.851 16.6032 97.3495 16.595 96.8877 16.5827C96.4259 16.5704 95.9363 16.5622 95.4267 16.5622H94.3082C93.926 16.5622 93.6195 16.5745 93.3926 16.6032C93.4443 15.7458 93.4881 14.8719 93.512 13.9775C93.5399 13.0831 93.5518 12.0656 93.5518 10.9169V8.09425L93.5558 8.09015ZM99.7578 5.95265C99.7578 5.62033 99.722 5.30442 99.6464 5.00903C99.5707 4.71364 99.4473 4.45517 99.2722 4.24183C99.097 4.02849 98.8741 3.85618 98.6074 3.72489C98.3407 3.5936 98.0023 3.52796 97.6002 3.52796C97.3057 3.52796 97.0987 3.52796 96.9872 3.54027C96.8718 3.54847 96.7484 3.56489 96.613 3.5936C96.5851 4.10644 96.5652 4.62338 96.5533 5.14852C96.5414 5.67367 96.5334 6.11676 96.5334 6.47779C96.5334 6.83883 96.5334 7.20807 96.5453 7.54859C96.5533 7.88911 96.5573 8.23784 96.5573 8.59478H97.4649C97.7475 8.59478 98.0262 8.54144 98.3009 8.43067C98.5755 8.3199 98.8223 8.15579 99.0373 7.94245C99.2523 7.72911 99.4274 7.45423 99.5628 7.12191C99.6981 6.7896 99.7658 6.40394 99.7658 5.96085L99.7578 5.95265ZM99.8971 12.6564C99.8971 11.6882 99.6862 10.9661 99.2642 10.4861C98.8422 10.0102 98.2252 9.76814 97.4211 9.76814C97.234 9.76814 97.0708 9.76814 96.9394 9.78045C96.8041 9.78866 96.6767 9.79276 96.5573 9.79276C96.5573 10.0841 96.5573 10.3835 96.5453 10.6954C96.5374 11.0072 96.5334 11.3764 96.5334 11.8072C96.5334 12.1395 96.5334 12.48 96.5453 12.8246C96.5533 13.1693 96.5573 13.5098 96.5573 13.8421C96.5573 14.1744 96.5573 14.478 96.5692 14.757C96.5772 15.0319 96.5812 15.2616 96.5812 15.4422C96.7683 15.4545 96.9434 15.4668 97.1066 15.475C97.2659 15.4832 97.4609 15.4873 97.6918 15.4873C97.9864 15.4873 98.269 15.4257 98.5397 15.2986C98.8064 15.1755 99.0413 14.9909 99.2443 14.7488C99.4473 14.5067 99.6065 14.2114 99.726 13.8667C99.8454 13.5221 99.9051 13.12 99.9051 12.6646L99.8971 12.6564Z" fill="white"/>
<path d="M105.901 5.02954C105.873 4.13516 105.833 3.24077 105.781 2.34229C106.008 2.371 106.259 2.39562 106.526 2.41613C106.792 2.43665 107.095 2.44895 107.433 2.44895C107.772 2.44895 108.07 2.43665 108.341 2.41613C108.608 2.39562 108.858 2.371 109.085 2.34229C109.03 3.24077 108.99 4.13926 108.966 5.02954C108.938 5.92393 108.926 6.94139 108.926 8.09015V10.9128C108.926 12.0615 108.938 13.0831 108.966 13.9734C108.994 14.8678 109.034 15.7417 109.085 16.5991C108.858 16.5704 108.608 16.5581 108.341 16.5581H106.53C106.263 16.5581 106.012 16.5704 105.785 16.5991C105.837 15.7417 105.881 14.8678 105.905 13.9734C105.933 13.079 105.944 12.0615 105.944 10.9128V8.09015C105.944 6.94139 105.933 5.91983 105.905 5.02954H105.901Z" fill="white"/>
<path d="M112.346 5.02974C112.318 4.13535 112.278 3.24097 112.227 2.34248C112.832 2.35479 113.429 2.3753 114.018 2.40402C114.607 2.43274 115.204 2.44505 115.809 2.44505C116.805 2.44505 117.684 2.43274 118.457 2.41223C119.229 2.39171 119.75 2.3671 120.017 2.33838C119.961 2.55992 119.937 2.85121 119.937 3.21225C119.937 3.4338 119.945 3.60611 119.957 3.72919C119.969 3.85227 119.989 3.99176 120.017 4.14356C119.627 4.11484 119.201 4.09022 118.739 4.06151C118.277 4.03279 117.828 4.00817 117.39 3.97945C116.952 3.95073 116.562 3.93022 116.211 3.91791C115.861 3.9056 115.614 3.8974 115.467 3.8974C115.411 4.6605 115.383 5.41129 115.375 6.15798C115.367 6.90467 115.363 7.65956 115.363 8.41856C116.235 8.40625 117.023 8.38574 117.728 8.35702C118.433 8.3283 119.169 8.29548 119.933 8.25445C119.894 8.4883 119.866 8.66882 119.854 8.796C119.842 8.91908 119.834 9.05037 119.834 9.18986C119.834 9.30063 119.846 9.41551 119.866 9.53038C119.886 9.64936 119.91 9.81757 119.937 10.0391C118.409 9.91604 116.884 9.85039 115.367 9.85039C115.367 10.2935 115.367 10.7366 115.356 11.1797C115.348 11.6228 115.344 12.0658 115.344 12.5089C115.344 13.4074 115.363 14.2731 115.403 15.1018C116.168 15.1018 116.932 15.0813 117.7 15.0403C118.464 14.9993 119.237 14.9295 120.017 14.8311C119.989 14.9829 119.969 15.1223 119.957 15.2454C119.945 15.3685 119.937 15.5449 119.937 15.7624C119.937 15.9798 119.945 16.1562 119.957 16.2793C119.969 16.4024 119.989 16.509 120.017 16.5911C119.655 16.5788 119.209 16.5665 118.679 16.5583C118.15 16.5501 117.422 16.546 116.494 16.546H113.301C112.999 16.546 112.772 16.546 112.617 16.5583C112.461 16.5665 112.33 16.5747 112.223 16.5911C112.274 15.7336 112.318 14.8598 112.342 13.9654C112.37 13.071 112.382 12.0535 112.382 10.9048V8.08214C112.382 6.93339 112.37 5.91182 112.342 5.02153L112.346 5.02974Z" fill="white"/>
<path d="M122.82 6.47369C122.82 5.51776 122.808 4.71774 122.78 4.06541C122.752 3.41309 122.732 2.83871 122.72 2.34229C123.095 2.41203 123.397 2.44485 123.628 2.44485C123.859 2.44485 124.157 2.41203 124.536 2.34229C126.001 4.01618 127.446 5.66546 128.875 7.28192C130.304 8.90248 131.773 10.5477 133.273 12.2215V8.40195C133.273 7.72501 133.273 7.05627 133.261 6.39984C133.254 5.74341 133.25 5.13621 133.242 4.58235C133.234 4.02849 133.222 3.55258 133.202 3.15051C133.182 2.74845 133.158 2.47767 133.13 2.34229C133.504 2.41203 133.807 2.44485 134.038 2.44485C134.269 2.44485 134.567 2.41203 134.945 2.34229C134.878 3.60181 134.826 4.73825 134.786 5.75572C134.746 6.77318 134.71 7.73321 134.687 8.6317C134.659 9.53019 134.643 10.4205 134.635 11.2984C134.627 12.1764 134.623 13.1159 134.623 14.1129V16.6032C134.356 16.5745 134.078 16.5622 133.799 16.5622C133.52 16.5622 133.242 16.5745 133.015 16.6032C130.248 13.28 127.314 9.94046 124.213 6.57626C124.201 6.97832 124.189 7.38038 124.181 7.77834C124.173 8.1804 124.169 8.58657 124.169 9.00505V11.4133C124.169 12.2421 124.169 12.9477 124.181 13.5303C124.189 14.1129 124.197 14.6011 124.213 15.0032C124.225 15.4052 124.241 15.7334 124.253 15.9878C124.265 16.2422 124.281 16.4473 124.293 16.5991C124.134 16.5704 123.97 16.5581 123.811 16.5581H123.349C123.039 16.5581 122.732 16.5704 122.422 16.5991C122.45 16.4883 122.482 16.0945 122.521 15.4175C122.561 14.7406 122.605 13.9119 122.653 12.9354C122.701 11.959 122.74 10.9005 122.772 9.75994C122.804 8.61939 122.824 7.51987 122.824 6.46959L122.82 6.47369Z" fill="white"/>
<path d="M138.084 5.02974C138.056 4.13535 138.017 3.24097 137.965 2.34248C138.57 2.35479 139.167 2.3753 139.756 2.40402C140.345 2.43274 140.943 2.44505 141.548 2.44505C142.543 2.44505 143.423 2.43274 144.195 2.41223C144.967 2.39171 145.489 2.3671 145.755 2.33838C145.7 2.55992 145.676 2.85121 145.676 3.21225C145.676 3.4338 145.684 3.60611 145.696 3.72919C145.707 3.85227 145.727 3.99176 145.755 4.14356C145.365 4.11484 144.939 4.09022 144.477 4.06151C144.016 4.03279 143.566 4.00817 143.128 3.97945C142.69 3.95073 142.3 3.93022 141.95 3.91791C141.599 3.9056 141.353 3.8974 141.205 3.8974C141.15 4.6605 141.122 5.41129 141.114 6.15798C141.106 6.90467 141.102 7.65956 141.102 8.41856C141.974 8.40625 142.762 8.38574 143.466 8.35702C144.171 8.3283 144.907 8.29548 145.672 8.25445C145.632 8.4883 145.604 8.66882 145.592 8.796C145.58 8.91908 145.572 9.05037 145.572 9.18986C145.572 9.30063 145.584 9.41551 145.604 9.53038C145.624 9.64936 145.648 9.81757 145.676 10.0391C144.147 9.91604 142.622 9.85039 141.106 9.85039C141.106 10.2935 141.106 10.7366 141.094 11.1797C141.086 11.6228 141.082 12.0658 141.082 12.5089C141.082 13.4074 141.102 14.2731 141.142 15.1018C141.906 15.1018 142.67 15.0813 143.438 15.0403C144.203 14.9993 144.975 14.9295 145.755 14.8311C145.727 14.9829 145.707 15.1223 145.696 15.2454C145.684 15.3685 145.676 15.5449 145.676 15.7624C145.676 15.9798 145.684 16.1562 145.696 16.2793C145.707 16.4024 145.727 16.509 145.755 16.5911C145.393 16.5788 144.947 16.5665 144.418 16.5583C143.888 16.5501 143.16 16.546 142.232 16.546H139.04C138.737 16.546 138.51 16.546 138.355 16.5583C138.2 16.5665 138.068 16.5747 137.961 16.5911C138.013 15.7336 138.056 14.8598 138.08 13.9654C138.108 13.071 138.12 12.0535 138.12 10.9048V8.08214C138.12 6.93339 138.108 5.91182 138.08 5.02153L138.084 5.02974Z" fill="white"/>
<path d="M151.878 3.35992C151.261 3.35992 150.755 3.54864 150.369 3.92199C149.979 4.29533 149.784 4.73022 149.784 5.23074C149.784 5.73127 149.935 6.16205 150.238 6.48617C150.541 6.81028 150.919 7.10567 151.376 7.36824C151.834 7.63081 152.324 7.88518 152.845 8.12724C153.371 8.3693 153.86 8.66879 154.314 9.02162C154.772 9.37445 155.15 9.80524 155.453 10.3099C155.755 10.8145 155.907 11.4627 155.907 12.2504C155.907 12.9438 155.779 13.5756 155.524 14.15C155.27 14.7244 154.907 15.2167 154.438 15.6228C153.968 16.0331 153.407 16.3408 152.758 16.5583C152.105 16.7716 151.376 16.8783 150.572 16.8783C149.848 16.8783 149.199 16.8003 148.63 16.6403C148.061 16.4803 147.627 16.2834 147.332 16.0495C147.467 15.5654 147.579 15.1223 147.674 14.7203C147.77 14.3182 147.85 13.8833 147.917 13.4115H148.299C148.351 13.7151 148.455 14.0023 148.602 14.2731C148.749 14.5438 148.936 14.7818 149.167 14.991C149.394 15.2003 149.673 15.3603 149.991 15.4792C150.314 15.5982 150.676 15.6557 151.078 15.6557C151.882 15.6557 152.479 15.4464 152.861 15.0321C153.243 14.6177 153.435 14.1172 153.435 13.5387C153.435 13.0135 153.287 12.5828 152.993 12.2504C152.698 11.9181 152.328 11.6227 151.886 11.3684C151.444 11.114 150.959 10.8637 150.437 10.6217C149.912 10.3796 149.43 10.0842 148.988 9.73959C148.546 9.39497 148.176 8.96829 147.881 8.46366C147.587 7.95903 147.44 7.3108 147.44 6.52309C147.44 5.80512 147.563 5.1651 147.814 4.61534C148.061 4.06148 148.395 3.59788 148.809 3.22453C149.223 2.85119 149.705 2.5681 150.25 2.37527C150.795 2.18245 151.369 2.08398 151.974 2.08398C152.698 2.08398 153.335 2.17424 153.876 2.35476C154.422 2.53528 154.888 2.78554 155.278 3.10145C155.158 3.42146 155.055 3.72916 154.967 4.02455C154.88 4.32405 154.768 4.69739 154.637 5.15689H154.334C153.904 3.96712 153.092 3.37223 151.898 3.37223L151.878 3.35992Z" fill="white"/>
<path d="M160.812 4.62367C160.804 4.29135 160.788 4.04929 160.76 3.89749C160.557 3.89749 160.311 3.9057 160.016 3.91801C159.721 3.93032 159.403 3.95083 159.069 3.97134C158.734 3.99186 158.392 4.02058 158.042 4.0534C157.691 4.08622 157.369 4.12724 157.074 4.16827C157.102 4.01647 157.126 3.86467 157.146 3.71287C157.166 3.56107 157.178 3.40928 157.178 3.25748C157.178 3.10568 157.166 2.95388 157.146 2.80208C157.126 2.65028 157.102 2.49848 157.074 2.34668C157.532 2.35899 157.942 2.3754 158.312 2.38771C158.682 2.40001 159.057 2.41232 159.439 2.42053C159.821 2.42873 160.239 2.43284 160.689 2.44104C161.139 2.44925 161.68 2.45335 162.309 2.45335C162.938 2.45335 163.479 2.45335 163.929 2.44104C164.379 2.43284 164.793 2.42873 165.167 2.42053C165.541 2.41232 165.908 2.40412 166.266 2.38771C166.62 2.3754 167.006 2.35899 167.424 2.34668C167.396 2.49848 167.372 2.65028 167.353 2.80208C167.333 2.95388 167.321 3.10568 167.321 3.25748C167.321 3.40928 167.333 3.56107 167.353 3.71287C167.372 3.86467 167.396 4.01647 167.424 4.16827C167.157 4.12724 166.855 4.09032 166.517 4.0534C166.182 4.02058 165.848 3.99186 165.521 3.97134C165.191 3.95083 164.88 3.93442 164.586 3.91801C164.291 3.9057 164.041 3.89749 163.842 3.89749C163.83 3.96724 163.818 4.0616 163.81 4.18879C163.802 4.31187 163.798 4.45956 163.798 4.62367V10.9131C163.798 12.0618 163.81 13.0834 163.838 13.9737C163.865 14.8681 163.905 15.7419 163.957 16.5994C163.73 16.5707 163.479 16.5584 163.213 16.5584H161.401C161.135 16.5584 160.884 16.5707 160.657 16.5994C160.709 15.7419 160.752 14.8681 160.776 13.9737C160.804 13.0793 160.816 12.0618 160.816 10.9131V5.72319C160.816 5.32113 160.816 4.95599 160.804 4.62367H160.812Z" fill="white"/>
<path d="M179.512 16.6035C179.19 16.5748 178.883 16.5625 178.597 16.5625H176.885C176.594 16.5625 176.312 16.5748 176.029 16.6035C175.814 15.9266 175.591 15.2332 175.364 14.5276C175.138 13.8219 174.895 13.1163 174.64 12.4106C174.21 12.3983 173.78 12.386 173.35 12.3778C172.92 12.3696 172.49 12.3655 172.06 12.3655C171.71 12.3655 171.364 12.3655 171.013 12.3778C170.663 12.386 170.317 12.3942 169.967 12.4106C169.696 13.1163 169.449 13.8219 169.222 14.5276C168.995 15.2332 168.784 15.9266 168.597 16.6035C168.434 16.5748 168.279 16.5625 168.123 16.5625H167.168C167.005 16.5625 166.834 16.5748 166.643 16.6035C166.802 16.2425 167.017 15.7461 167.287 15.1102C167.554 14.4742 167.853 13.7522 168.175 12.9521C168.498 12.148 168.844 11.2865 169.214 10.3675C169.584 9.44845 169.951 8.51714 170.321 7.57763C170.691 6.63812 171.053 5.71091 171.408 4.79601C171.762 3.88111 172.088 3.03186 172.383 2.24414C172.518 2.27286 172.646 2.29748 172.765 2.31799C172.884 2.3385 173.012 2.35081 173.147 2.35081C173.282 2.35081 173.41 2.3385 173.529 2.31799C173.649 2.29748 173.776 2.27286 173.911 2.24414C174.341 3.42161 174.799 4.68114 175.293 6.02271C175.782 7.36429 176.276 8.68125 176.774 9.9777C177.271 11.27 177.753 12.5009 178.223 13.6619C178.692 14.823 179.122 15.8076 179.512 16.6076V16.6035ZM172.383 6.24426C172.033 7.073 171.706 7.89354 171.396 8.70587C171.085 9.5141 170.783 10.3428 170.488 11.188H174.174C173.88 10.3428 173.585 9.5182 173.298 8.70587C173.008 7.89764 172.705 7.0771 172.383 6.24426Z" fill="white"/>
<path d="M184.569 10.0635V10.9128C184.569 12.0615 184.58 13.0831 184.608 13.9734C184.636 14.8678 184.676 15.7417 184.728 16.5991C184.501 16.5704 184.25 16.5581 183.983 16.5581H182.172C181.905 16.5581 181.655 16.5704 181.428 16.5991C181.479 15.7417 181.523 14.8678 181.547 13.9734C181.575 13.079 181.587 12.0615 181.587 10.9128V8.09015C181.587 6.94139 181.575 5.91983 181.547 5.02954C181.519 4.13516 181.479 3.24077 181.428 2.34229C181.655 2.371 181.905 2.39562 182.172 2.41613C182.439 2.43665 182.741 2.44895 183.08 2.44895C183.442 2.44895 183.856 2.43254 184.318 2.39562C184.78 2.3628 185.357 2.34229 186.041 2.34229C186.551 2.34229 186.989 2.35459 187.351 2.38331C187.713 2.41203 188.024 2.45306 188.287 2.50639C188.549 2.56383 188.776 2.63358 188.971 2.72383C189.166 2.81409 189.349 2.92076 189.525 3.04384C189.927 3.34744 190.245 3.72489 190.48 4.17619C190.715 4.62748 190.834 5.16083 190.834 5.78444C190.834 6.7937 190.568 7.61834 190.03 8.25425C189.493 8.89017 188.72 9.34146 187.713 9.60404C188.358 10.7815 189.051 11.9549 189.787 13.1241C190.524 14.2934 191.264 15.4545 192.005 16.5991C191.694 16.5704 191.392 16.5581 191.097 16.5581H189.274C188.971 16.5581 188.665 16.5704 188.358 16.5991L184.752 10.0594H184.569V10.0635ZM187.749 6.24394C187.749 5.63674 187.689 5.15262 187.566 4.79159C187.447 4.43055 187.26 4.15977 187.013 3.97105C186.766 3.78233 186.443 3.66335 186.045 3.60591C185.647 3.55258 185.178 3.52386 184.624 3.52386C184.584 5.40699 184.565 7.28602 184.565 9.16915C184.644 9.18146 184.724 9.19377 184.795 9.20197C184.871 9.21018 184.939 9.21428 185.006 9.21428C185.894 9.21428 186.571 8.96812 187.041 8.4758C187.51 7.98348 187.745 7.24089 187.745 6.24394H187.749Z" fill="white"/>
<path d="M191.996 20.144H41.8379V21.6415H191.996V20.144Z" fill="white"/>
</g>
<defs>
<clipPath id="clip0_10662_100518">
<rect width="192" height="35" fill="white"/>
</clipPath>
</defs>
</svg>
